<?xml version="1.0"?><mxGraphModel><root><mxCell id="0" /><mxCell id="1" parent="0" /><mxCell id="edge1" style="rounded=1;html=1;exitX=0.5;exitY=0;entryX=0.5;entryY=1;jettySize=auto;curved=0;endArrow=block;dashed=0;endFill=1;" parent="1" edge="1" source="node12" target="node8"><mxGeometry as="geometry" relative="1" /></mxCell><mxCell id="node1" value="&lt;p style='margin:0px;text-align:center;margin-top:4px;;font-size:10.0px;font-family:Times New Roman,serif;color:#000000;'&gt;profile.Device&lt;/p&gt;&lt;hr size='1'/&gt;&lt;p style='margin:0px;text-align:start;margin-left:4px;;font-size:10.0px;font-family:Times New Roman,serif;color:#000000;'&gt;device_guid : NoneType&lt;br/&gt;label : str, NoneType&lt;br/&gt;modes : dict&lt;br/&gt;name : NoneType&lt;br/&gt;parent&lt;br/&gt;type : NoneType&lt;/p&gt;&lt;hr size='1'/&gt;&lt;p style='margin:0px;text-align:start;margin-left:4px;;font-size:10.0px;font-family:Times New Roman,serif;color:#000000;'&gt;__init__(parent)&lt;br/&gt;ensure_mode_exists(mode_name, device)&lt;br/&gt;from_xml(node)&lt;br/&gt;to_xml()&lt;/p&gt;" style="verticalAlign=top;align=left;overflow=fill;html=1;rounded=0;shadow=0;comic=0;labelBackgroundColor=none;strokeColor=black;strokeWidth=1;fillColor=#ffffff;" parent="1" vertex="1"><mxGeometry x="4.0" y="401.5" width="250.81" height="208.79999999999995" as="geometry" /></mxCell><mxCell id="node2" value="&lt;p style='margin:0px;text-align:center;margin-top:4px;;font-size:10.0px;font-family:Times New Roman,serif;color:#000000;'&gt;profile.GUIDConverter&lt;/p&gt;&lt;hr size='1'/&gt;&lt;p style='margin:0px;text-align:start;margin-left:4px;;font-size:10.0px;font-family:Times New Roman,serif;color:#000000;'&gt;dev_info : dict&lt;br/&gt;hwid_to_guid : dict&lt;br/&gt;vjoy_to_guid : dict&lt;/p&gt;&lt;hr size='1'/&gt;&lt;p style='margin:0px;text-align:start;margin-left:4px;;font-size:10.0px;font-family:Times New Roman,serif;color:#000000;'&gt;__init__()&lt;br/&gt;axis_lookup(device_guid, linear_id)&lt;br/&gt;lookup(hardware_id, name)&lt;br/&gt;vjoy_lookup(vjoy_id)&lt;/p&gt;" style="verticalAlign=top;align=left;overflow=fill;html=1;rounded=0;shadow=0;comic=0;labelBackgroundColor=none;strokeColor=black;strokeWidth=1;fillColor=#ffffff;" parent="1" vertex="1"><mxGeometry x="272.93" y="426.7" width="218.95" height="158.40000000000003" as="geometry" /></mxCell><mxCell id="node3" value="&lt;p style='margin:0px;text-align:center;margin-top:4px;;font-size:10.0px;font-family:Times New Roman,serif;color:#000000;'&gt;profile.InputItem&lt;/p&gt;&lt;hr size='1'/&gt;&lt;p style='margin:0px;text-align:start;margin-left:4px;;font-size:10.0px;font-family:Times New Roman,serif;color:#000000;'&gt;always_execute : bool&lt;br/&gt;containers : list&lt;br/&gt;description : str, NoneType&lt;br/&gt;input_id : NoneType, tuple, int&lt;br/&gt;input_type : NoneType&lt;br/&gt;parent&lt;/p&gt;&lt;hr size='1'/&gt;&lt;p style='margin:0px;text-align:start;margin-left:4px;;font-size:10.0px;font-family:Times New Roman,serif;color:#000000;'&gt;__eq__(other)&lt;br/&gt;__hash__()&lt;br/&gt;__init__(parent)&lt;br/&gt;from_xml(node)&lt;br/&gt;get_device_type()&lt;br/&gt;get_input_type()&lt;br/&gt;to_xml()&lt;/p&gt;" style="verticalAlign=top;align=left;overflow=fill;html=1;rounded=0;shadow=0;comic=0;labelBackgroundColor=none;strokeColor=black;strokeWidth=1;fillColor=#ffffff;" parent="1" vertex="1"><mxGeometry x="509.69" y="376.29999999999995" width="189.42000000000002" height="259.20000000000005" as="geometry" /></mxCell><mxCell id="node4" value="&lt;p style='margin:0px;text-align:center;margin-top:4px;;font-size:10.0px;font-family:Times New Roman,serif;color:#000000;'&gt;profile.Mode&lt;/p&gt;&lt;hr size='1'/&gt;&lt;p style='margin:0px;text-align:start;margin-left:4px;;font-size:10.0px;font-family:Times New Roman,serif;color:#000000;'&gt;config : dict&lt;br/&gt;inherit : NoneType&lt;br/&gt;name : str, NoneType&lt;br/&gt;parent&lt;/p&gt;&lt;hr size='1'/&gt;&lt;p style='margin:0px;text-align:start;margin-left:4px;;font-size:10.0px;font-family:Times New Roman,serif;color:#000000;'&gt;__init__(parent)&lt;br/&gt;all_input_items()&lt;br/&gt;delete_data(input_type, input_id)&lt;br/&gt;from_xml(node)&lt;br/&gt;get_data(input_type, input_id)&lt;br/&gt;has_data(input_type, input_id)&lt;br/&gt;set_data(input_type, input_id, data)&lt;br/&gt;to_xml()&lt;/p&gt;" style="verticalAlign=top;align=left;overflow=fill;html=1;rounded=0;shadow=0;comic=0;labelBackgroundColor=none;strokeColor=black;strokeWidth=1;fillColor=#ffffff;" parent="1" vertex="1"><mxGeometry x="716.87" y="384.7" width="215.07000000000005" height="242.40000000000003" as="geometry" /></mxCell><mxCell id="node5" value="&lt;p style='margin:0px;text-align:center;margin-top:4px;;font-size:10.0px;font-family:Times New Roman,serif;color:#000000;'&gt;profile.Plugin&lt;/p&gt;&lt;hr size='1'/&gt;&lt;p style='margin:0px;text-align:start;margin-left:4px;;font-size:10.0px;font-family:Times New Roman,serif;color:#000000;'&gt;file_name : str, NoneType&lt;br/&gt;instances : list&lt;br/&gt;parent&lt;/p&gt;&lt;hr size='1'/&gt;&lt;p style='margin:0px;text-align:start;margin-left:4px;;font-size:10.0px;font-family:Times New Roman,serif;color:#000000;'&gt;__init__(parent)&lt;br/&gt;from_xml(node)&lt;br/&gt;to_xml()&lt;/p&gt;" style="verticalAlign=top;align=left;overflow=fill;html=1;rounded=0;shadow=0;comic=0;labelBackgroundColor=none;strokeColor=black;strokeWidth=1;fillColor=#ffffff;" parent="1" vertex="1"><mxGeometry x="949.93" y="435.09999999999997" width="162.95000000000016" height="141.59999999999997" as="geometry" /></mxCell><mxCell id="node6" value="&lt;p style='margin:0px;text-align:center;margin-top:4px;;font-size:10.0px;font-family:Times New Roman,serif;color:#000000;'&gt;profile.PluginInstance&lt;/p&gt;&lt;hr size='1'/&gt;&lt;p style='margin:0px;text-align:start;margin-left:4px;;font-size:10.0px;font-family:Times New Roman,serif;color:#000000;'&gt;name : NoneType, str&lt;br/&gt;parent&lt;br/&gt;variables : dict&lt;/p&gt;&lt;hr size='1'/&gt;&lt;p style='margin:0px;text-align:start;margin-left:4px;;font-size:10.0px;font-family:Times New Roman,serif;color:#000000;'&gt;__init__(parent)&lt;br/&gt;from_xml(node)&lt;br/&gt;get_variable(name)&lt;br/&gt;has_variable(name)&lt;br/&gt;is_configured()&lt;br/&gt;set_variable(name, variable)&lt;br/&gt;to_xml()&lt;/p&gt;" style="verticalAlign=top;align=left;overflow=fill;html=1;rounded=0;shadow=0;comic=0;labelBackgroundColor=none;strokeColor=black;strokeWidth=1;fillColor=#ffffff;" parent="1" vertex="1"><mxGeometry x="1130.72" y="401.5" width="175.3599999999999" height="208.79999999999995" as="geometry" /></mxCell><mxCell id="node7" value="&lt;p style='margin:0px;text-align:center;margin-top:4px;;font-size:10.0px;font-family:Times New Roman,serif;color:#000000;'&gt;profile.PluginVariable&lt;/p&gt;&lt;hr size='1'/&gt;&lt;p style='margin:0px;text-align:start;margin-left:4px;;font-size:10.0px;font-family:Times New Roman,serif;color:#000000;'&gt;is_optional : bool&lt;br/&gt;name : str, NoneType&lt;br/&gt;parent&lt;br/&gt;type : NoneType&lt;br/&gt;value : str, int, NoneType, float, bool, dict&lt;/p&gt;&lt;hr size='1'/&gt;&lt;p style='margin:0px;text-align:start;margin-left:4px;;font-size:10.0px;font-family:Times New Roman,serif;color:#000000;'&gt;__init__(parent)&lt;br/&gt;from_xml(node)&lt;br/&gt;to_xml()&lt;/p&gt;" style="verticalAlign=top;align=left;overflow=fill;html=1;rounded=0;shadow=0;comic=0;labelBackgroundColor=none;strokeColor=black;strokeWidth=1;fillColor=#ffffff;" parent="1" vertex="1"><mxGeometry x="1323.6" y="418.29999999999995" width="251.61000000000013" height="175.20000000000005" as="geometry" /></mxCell><mxCell id="node8" value="&lt;p style='margin:0px;text-align:center;margin-top:4px;;font-size:10.0px;font-family:Times New Roman,serif;color:#000000;'&gt;profile.Profile&lt;/p&gt;&lt;hr size='1'/&gt;&lt;p style='margin:0px;text-align:start;margin-left:4px;;font-size:10.0px;font-family:Times New Roman,serif;color:#000000;'&gt;devices : dict&lt;br/&gt;merge_axes : list&lt;br/&gt;parent : NoneType&lt;br/&gt;plugins : list&lt;br/&gt;settings&lt;br/&gt;vjoy_devices : dict&lt;/p&gt;&lt;hr size='1'/&gt;&lt;p style='margin:0px;text-align:start;margin-left:4px;;font-size:10.0px;font-family:Times New Roman,serif;color:#000000;'&gt;__init__()&lt;br/&gt;_parse_merge_axis(node)&lt;br/&gt;build_inheritance_tree()&lt;br/&gt;empty()&lt;br/&gt;from_xml(fname)&lt;br/&gt;get_device_modes(device_guid, device_type, device_name)&lt;br/&gt;get_root_modes()&lt;br/&gt;initialize_joystick_device(device, modes)&lt;br/&gt;list_unused_vjoy_inputs()&lt;br/&gt;to_xml(fname)&lt;/p&gt;" style="verticalAlign=top;align=left;overflow=fill;html=1;rounded=0;shadow=0;comic=0;labelBackgroundColor=none;strokeColor=black;strokeWidth=1;fillColor=#ffffff;" parent="1" vertex="1"><mxGeometry x="1545.7" y="4.5" width="353.40999999999985" height="309.59999999999997" as="geometry" /></mxCell><mxCell id="node9" value="&lt;p style='margin:0px;text-align:center;margin-top:4px;;font-size:10.0px;font-family:Times New Roman,serif;color:#000000;'&gt;profile.ProfileConverter&lt;/p&gt;&lt;hr size='1'/&gt;&lt;p style='margin:0px;text-align:start;margin-left:4px;;font-size:10.0px;font-family:Times New Roman,serif;color:#000000;'&gt;current_version : int&lt;/p&gt;&lt;hr size='1'/&gt;&lt;p style='margin:0px;text-align:start;margin-left:4px;;font-size:10.0px;font-family:Times New Roman,serif;color:#000000;'&gt;__init__()&lt;br/&gt;_convert_from_v1(root, fname)&lt;br/&gt;_convert_from_v2(root, fname)&lt;br/&gt;_convert_from_v3(root, fname)&lt;br/&gt;_convert_from_v4(root, fname)&lt;br/&gt;_convert_from_v5(root, fname)&lt;br/&gt;_convert_from_v6(root, fname)&lt;br/&gt;_convert_from_v7(root, fname)&lt;br/&gt;_convert_from_v8(root, fname)&lt;br/&gt;_determine_version(root)&lt;br/&gt;_p3_extract_map_to_keyboard(input_item)&lt;br/&gt;convert_profile(fname)&lt;br/&gt;is_current(fname)&lt;/p&gt;" style="verticalAlign=top;align=left;overflow=fill;html=1;rounded=0;shadow=0;comic=0;labelBackgroundColor=none;strokeColor=black;strokeWidth=1;fillColor=#ffffff;" parent="1" vertex="1"><mxGeometry x="1869.33" y="367.9" width="260.1500000000001" height="276.0" as="geometry" /></mxCell><mxCell id="node10" value="&lt;p style='margin:0px;text-align:center;margin-top:4px;;font-size:10.0px;font-family:Times New Roman,serif;color:#000000;'&gt;profile.ProfileData&lt;/p&gt;&lt;hr size='1'/&gt;&lt;p style='margin:0px;text-align:start;margin-left:4px;;font-size:10.0px;font-family:Times New Roman,serif;color:#000000;'&gt;code : NoneType&lt;br/&gt;parent&lt;/p&gt;&lt;hr size='1'/&gt;&lt;p style='margin:0px;text-align:start;margin-left:4px;;font-size:10.0px;font-family:Times New Roman,serif;color:#000000;'&gt;__init__(parent)&lt;br/&gt;_generate_xml()&lt;br/&gt;_is_valid()&lt;br/&gt;_parse_xml(node)&lt;br/&gt;_sanitize()&lt;br/&gt;from_xml(node)&lt;br/&gt;get_device_type()&lt;br/&gt;get_input_type()&lt;br/&gt;get_mode()&lt;br/&gt;get_settings()&lt;br/&gt;is_valid()&lt;br/&gt;to_xml()&lt;/p&gt;" style="verticalAlign=top;align=left;overflow=fill;html=1;rounded=0;shadow=0;comic=0;labelBackgroundColor=none;strokeColor=black;strokeWidth=1;fillColor=#ffffff;" parent="1" vertex="1"><mxGeometry x="2147.73" y="367.9" width="121.34999999999991" height="276.0" as="geometry" /></mxCell><mxCell id="node11" value="&lt;p style='margin:0px;text-align:center;margin-top:4px;;font-size:10.0px;font-family:Times New Roman,serif;color:#000000;'&gt;profile.ProfileModifier&lt;/p&gt;&lt;hr size='1'/&gt;&lt;p style='margin:0px;text-align:start;margin-left:4px;;font-size:10.0px;font-family:Times New Roman,serif;color:#000000;'&gt;profile&lt;/p&gt;&lt;hr size='1'/&gt;&lt;p style='margin:0px;text-align:start;margin-left:4px;;font-size:10.0px;font-family:Times New Roman,serif;color:#000000;'&gt;__init__(profile)&lt;br/&gt;_get_device(device_guid)&lt;br/&gt;all_conditions()&lt;br/&gt;change_conditions(source_guid, target_guid)&lt;br/&gt;change_device_actions(source_guid, target_guid)&lt;br/&gt;change_device_guid(source_guid, target_guid)&lt;br/&gt;change_merge_axis(source_guid, target_guid)&lt;br/&gt;condition_count(device_guid)&lt;br/&gt;container_count(device_guid)&lt;br/&gt;device_information_list()&lt;br/&gt;device_names()&lt;br/&gt;merge_axis_count(device_guid)&lt;/p&gt;" style="verticalAlign=top;align=left;overflow=fill;html=1;rounded=0;shadow=0;comic=0;labelBackgroundColor=none;strokeColor=black;strokeWidth=1;fillColor=#ffffff;" parent="1" vertex="1"><mxGeometry x="2287.23" y="376.29999999999995" width="294.34000000000015" height="259.20000000000005" as="geometry" /></mxCell><mxCell id="node12" value="&lt;p style='margin:0px;text-align:center;margin-top:4px;;font-size:10.0px;font-family:Times New Roman,serif;color:#000000;'&gt;profile.Settings&lt;/p&gt;&lt;hr size='1'/&gt;&lt;p style='margin:0px;text-align:start;margin-left:4px;;font-size:10.0px;font-family:Times New Roman,serif;color:#000000;'&gt;default_delay : float&lt;br/&gt;parent&lt;br/&gt;startup_mode : NoneType&lt;br/&gt;vjoy_as_input : dict&lt;br/&gt;vjoy_initial_values : dict&lt;/p&gt;&lt;hr size='1'/&gt;&lt;p style='margin:0px;text-align:start;margin-left:4px;;font-size:10.0px;font-family:Times New Roman,serif;color:#000000;'&gt;__init__(parent)&lt;br/&gt;from_xml(node)&lt;br/&gt;get_initial_vjoy_axis_value(vid, aid)&lt;br/&gt;set_initial_vjoy_axis_value(vid, aid, value)&lt;br/&gt;to_xml()&lt;/p&gt;" style="verticalAlign=top;align=left;overflow=fill;html=1;rounded=0;shadow=0;comic=0;labelBackgroundColor=none;strokeColor=black;strokeWidth=1;fillColor=#ffffff;" parent="1" vertex="1"><mxGeometry x="1593.1" y="401.5" width="258.6100000000001" height="208.79999999999995" as="geometry" /></mxCell></root></mxGraphModel>